<svg width="29" height="30" viewBox="0 0 29 30" fill="none" xmlns="http://www.w3.org/2000/svg">
<path d="M3.3162 4.1136L5.49117 1.78327C5.8865 1.3597 6.55794 1.3597 6.95328 1.78327L11.8076 6.98435C12.1662 7.36856 12.1662 7.96478 11.8076 8.34899L9.74026 10.564C9.49437 10.8275 9.43314 11.2139 9.58554 11.5404L9.7321 11.8545C11.4929 15.6276 14.4279 18.7292 18.0982 20.6954C18.4333 20.875 18.8473 20.8065 19.1067 20.5285L21.0467 18.4499C21.4421 18.0264 22.1135 18.0264 22.5088 18.4499L27.3632 23.651C27.7218 24.0352 27.7218 24.6314 27.3632 25.0157L25.5794 26.9269C23.4358 29.2235 19.8836 29.4779 17.4347 27.51L11.8887 23.0534C10.1937 21.6914 8.70039 20.0958 7.4534 18.3144L2.78713 11.6483C1.16216 9.32689 1.38277 6.18513 3.3162 4.1136Z" stroke="#2A61B4" stroke-width="2"/>
</svg>
