<svg width="25" height="26" viewBox="0 0 25 26" fill="none" xmlns="http://www.w3.org/2000/svg">
<path d="M3.2607 3.24536L4.59853 1.79604C4.99449 1.36708 5.67217 1.36708 6.06814 1.79604L10.0406 6.0995C10.3942 6.48256 10.3942 7.073 10.0406 7.45606L8.34674 9.29103C8.13684 9.51842 8.08454 9.84984 8.21422 10.1308L8.35947 10.4455C9.85729 13.6908 12.3649 16.3643 15.5078 18.0667C15.7973 18.2235 16.1564 18.1639 16.3797 17.922L17.9319 16.2405C18.3278 15.8115 19.0055 15.8115 19.4015 16.2405L23.3739 20.5439C23.7275 20.927 23.7275 21.5174 23.3739 21.9005L22.4873 22.861C20.3393 25.1879 16.7527 25.4449 14.2949 23.448L10.5423 20.3989C8.85593 19.0288 7.37225 17.4266 6.13548 15.6401L2.73636 10.7303C1.13712 8.42029 1.35501 5.30985 3.2607 3.24536Z" fill="white" stroke="#2A61B4" stroke-width="1.7"/>
</svg>
