<svg width="29" height="34" viewBox="0 0 29 34" fill="none" xmlns="http://www.w3.org/2000/svg">
<path d="M27.4348 13.8C27.4348 23.4 14.2174 33 14.2174 33C14.2174 33 1 23.4 1 13.8C1 10.4052 2.39254 7.1495 4.87128 4.74903C7.35003 2.34857 10.7119 1 14.2174 1C17.7229 1 21.0848 2.34857 23.5635 4.74903C26.0422 7.1495 27.4348 10.4052 27.4348 13.8Z" stroke="#2A61B4" stroke-width="2" stroke-linecap="round" stroke-linejoin="round"/>
<path d="M14.2173 19.0878C16.9067 19.0878 19.0869 16.9076 19.0869 14.2182C19.0869 11.5288 16.9067 9.34863 14.2173 9.34863C11.528 9.34863 9.34778 11.5288 9.34778 14.2182C9.34778 16.9076 11.528 19.0878 14.2173 19.0878Z" stroke="#2A61B4" stroke-width="2" stroke-linecap="round" stroke-linejoin="round"/>
</svg>
