<svg width="23" height="28" viewBox="0 0 23 28" fill="none" xmlns="http://www.w3.org/2000/svg">
<path d="M22 11.4C22 19.2 11.5 27 11.5 27C11.5 27 1 19.2 1 11.4C1 8.64175 2.10625 5.99647 4.07538 4.04609C6.04451 2.09571 8.71523 1 11.5 1C14.2848 1 16.9555 2.09571 18.9246 4.04609C20.8938 5.99647 22 8.64175 22 11.4Z" fill="white" stroke="#2A61B4" stroke-width="1.7" stroke-linecap="round" stroke-linejoin="round"/>
<path d="M11.6412 15.5627C13.8064 15.5627 15.5617 13.8074 15.5617 11.6422C15.5617 9.47695 13.8064 7.72168 11.6412 7.72168C9.47597 7.72168 7.7207 9.47695 7.7207 11.6422C7.7207 13.8074 9.47597 15.5627 11.6412 15.5627Z" fill="#BFD0E9" stroke="#2A61B4" stroke-width="1.7" stroke-linecap="round" stroke-linejoin="round"/>
</svg>
